<svg width="585" height="406" viewBox="0 0 585 406" fill="none" xmlns="http://www.w3.org/2000/svg">
<rect x="32" y="41" width="516" height="364" rx="20" fill="white" fill-opacity="0.8"/>
<g filter="url(#filter0_d_3253_8717)">
<path d="M19 36C19 29.3726 24.3726 24 31 24H555C561.627 24 567 29.3726 567 36V376C567 382.627 561.627 388 555 388H31C24.3726 388 19 382.627 19 376V36Z" fill="white" fill-opacity="0.7" shape-rendering="crispEdges"/>
</g>
<g filter="url(#filter1_d_3253_8717)">
<rect x="8" width="569" height="368" rx="12" fill="white"/>
<rect width="569" height="56" transform="translate(8)" fill="#18212E"/>
<circle cx="32" cy="28" r="6" fill="#FF3B30"/>
<circle cx="56" cy="28" r="6" fill="#FFCC00"/>
<circle cx="80" cy="28" r="6" fill="#34C759"/>
<rect width="54" height="3" transform="translate(23 91)" fill="#EEF0F7"/>
<rect width="54" height="3" transform="translate(23 110)" fill="#EEF0F7"/>
<rect width="54" height="3" transform="translate(23 129)" fill="#EEF0F7"/>
<rect width="54" height="3" transform="translate(23 148)" fill="#EEF0F7"/>
<rect width="54" height="3" transform="translate(23 167)" fill="#EEF0F7"/>
<line x1="99.5" y1="64" x2="99.5" y2="345" stroke="#E9ECF2"/>
<rect x="116" y="172" width="250" height="179" rx="5" fill="#EEF0F7"/>
<path d="M152 278L220.409 227.322L265.064 260.403L352 196" stroke="#E4C588" stroke-width="1.2"/>
<rect width="136" height="5" transform="matrix(0 -1 1 0 133 340)" fill="#0C1B3D"/>
<rect width="54" height="5" transform="matrix(0 -1 1 0 168.167 340)" fill="#CCDBFD"/>
<rect width="36" height="5" transform="matrix(0 -1 1 0 203.333 340)" fill="#0C1B3D"/>
<rect width="54" height="5" transform="matrix(0 -1 1 0 238.5 340)" fill="#CCDBFD"/>
<rect width="75" height="5" transform="matrix(0 -1 1 0 273.667 340)" fill="#0C1B3D"/>
<rect width="54" height="5" transform="matrix(0 -1 1 0 308.833 340)" fill="#CCDBFD"/>
<rect width="93" height="5" transform="matrix(0 -1 1 0 344 340)" fill="#CCDBFD"/>
<rect width="138" height="50" transform="translate(116 82)" fill="#EEF0F7"/>
<rect width="138" height="50" transform="translate(263 82)" fill="#EEF0F7"/>
<rect width="138" height="50" transform="translate(410 82)" fill="#EEF0F7"/>
<path d="M548 259.5C548 305.616 510.616 343 464.5 343C418.384 343 381 305.616 381 259.5C381 213.384 418.384 176 464.5 176C510.616 176 548 213.384 548 259.5ZM392.976 259.5C392.976 299.001 424.999 331.024 464.5 331.024C504.001 331.024 536.024 299.001 536.024 259.5C536.024 219.999 504.001 187.976 464.5 187.976C424.999 187.976 392.976 219.999 392.976 259.5Z" fill="#EEF0F7"/>
<path d="M548 259.5C548 237.638 539.426 216.648 524.119 201.038C508.812 185.428 487.994 176.444 466.136 176.016C444.278 175.588 423.124 183.749 407.218 198.747C391.311 213.744 381.921 234.382 381.064 256.228L393.558 256.718C394.287 238.144 402.271 220.596 415.795 207.844C429.32 195.092 447.306 188.153 465.891 188.517C484.476 188.882 502.177 196.52 515.192 209.792C528.206 223.065 535.496 240.912 535.496 259.5H548Z" fill="#18212E"/>
<rect width="100" height="5" transform="translate(116 156)" fill="#EEF0F7"/>
</g>
<defs>
<filter id="filter0_d_3253_8717" x="11.9" y="24" width="562.2" height="381.1" filterUnits="userSpaceOnUse" color-interpolation-filters="sRGB">
<feFlood flood-opacity="0" result="BackgroundImageFix"/>
<feColorMatrix in="SourceAlpha" type="matrix" values="0 0 0 0 0 0 0 0 0 0 0 0 0 0 0 0 0 0 127 0" result="hardAlpha"/>
<feMorphology radius="4" operator="erode" in="SourceAlpha" result="effect1_dropShadow_3253_8717"/>
<feOffset dy="10"/>
<feGaussianBlur stdDeviation="5.55"/>
<feComposite in2="hardAlpha" operator="out"/>
<feColorMatrix type="matrix" values="0 0 0 0 0 0 0 0 0 0 0 0 0 0 0 0 0 0 0.05 0"/>
<feBlend mode="normal" in2="BackgroundImageFix" result="effect1_dropShadow_3253_8717"/>
<feBlend mode="normal" in="SourceGraphic" in2="effect1_dropShadow_3253_8717" result="shape"/>
</filter>
<filter id="filter1_d_3253_8717" x="0.9" y="0" width="583.2" height="385.1" filterUnits="userSpaceOnUse" color-interpolation-filters="sRGB">
<feFlood flood-opacity="0" result="BackgroundImageFix"/>
<feColorMatrix in="SourceAlpha" type="matrix" values="0 0 0 0 0 0 0 0 0 0 0 0 0 0 0 0 0 0 127 0" result="hardAlpha"/>
<feMorphology radius="4" operator="erode" in="SourceAlpha" result="effect1_dropShadow_3253_8717"/>
<feOffset dy="10"/>
<feGaussianBlur stdDeviation="5.55"/>
<feComposite in2="hardAlpha" operator="out"/>
<feColorMatrix type="matrix" values="0 0 0 0 0 0 0 0 0 0 0 0 0 0 0 0 0 0 0.05 0"/>
<feBlend mode="normal" in2="BackgroundImageFix" result="effect1_dropShadow_3253_8717"/>
<feBlend mode="normal" in="SourceGraphic" in2="effect1_dropShadow_3253_8717" result="shape"/>
</filter>
</defs>
</svg>
