<svg width="108" height="33" viewBox="0 0 108 33" fill="none" xmlns="http://www.w3.org/2000/svg">
<path fill-rule="evenodd" clip-rule="evenodd" d="M21.4232 4.52348C25.5116 6.99965 28.2442 11.4927 28.2442 16.6244C28.2442 24.4304 21.9216 30.7584 14.1221 30.7584C12.5582 30.7584 11.0536 30.504 9.64746 30.0342C9.68231 29.9107 9.70088 29.7804 9.70088 29.646V22.367C10.9225 23.3025 12.4642 23.8579 14.1221 23.8579C18.1652 23.8579 21.423 20.5838 21.423 16.5204C21.423 16.4839 21.4227 16.4475 21.4222 16.4111L21.423 16.3018L21.4232 4.52348ZM14.1221 2.49048C15.6663 2.49048 17.1527 2.73854 18.5435 3.19701L18.5434 10.4552C17.3217 9.51974 15.7801 8.96431 14.1221 8.96431C10.079 8.96431 6.82125 12.2384 6.82125 16.3018C6.82125 16.3383 6.82152 16.3747 6.82205 16.4111L6.82125 16.5204L6.82107 28.7254C2.73266 26.2492 0 21.7562 0 16.6244C0 8.81847 6.32269 2.49048 14.1221 2.49048ZM14.1221 12.077C16.5288 12.077 18.484 14.0341 18.542 16.4117C18.4841 18.8164 16.5289 20.7452 14.1221 20.7452C11.7154 20.7452 9.76025 18.7881 9.7022 16.4105C9.76018 14.0058 11.7154 12.077 14.1221 12.077Z" fill="white"/>
<path fill-rule="evenodd" clip-rule="evenodd" d="M44.6821 24.8653C42.814 24.8653 41.0771 24.2395 39.7006 23.1856V31.3862C39.7006 32.2755 38.9796 33 38.0947 33C37.1771 33 36.4561 32.2755 36.4561 31.3862V16.5988C36.4561 12.0539 40.1594 8.33234 44.6821 8.33234C49.2376 8.33234 52.9082 12.0539 52.9082 16.5988C52.9082 21.1766 49.2376 24.8653 44.6821 24.8653ZM44.6821 11.5928C41.9292 11.5928 39.7006 13.8323 39.7006 16.5988V16.6317C39.7006 19.3653 41.9292 21.6048 44.6821 21.6048C47.4351 21.6048 49.6636 19.3653 49.6636 16.5988C49.6636 13.8653 47.4351 11.5928 44.6821 11.5928ZM63.1334 8.26647C67.7544 8.26647 71.1956 11.9551 71.1956 16.5988V23.0539C71.1956 24.009 70.5074 24.7006 69.5569 24.7006C68.9015 24.7006 67.9838 24.009 67.9838 23.0539C66.5746 24.2395 65.0015 24.7006 63.1334 24.7006C58.5124 24.7006 54.8418 21.2425 54.8418 16.5988C54.8418 11.9551 58.5124 8.26647 63.1334 8.26647ZM63.1334 21.4731C65.8863 21.4731 67.9838 19.3653 67.9838 16.5988C67.9838 13.8323 65.8863 11.494 63.1334 11.494C60.3804 11.494 58.0536 13.8323 58.0536 16.5988C58.0536 19.3653 60.3804 21.4731 63.1334 21.4731ZM81.4208 8.13473C83.2889 8.13473 85.0259 8.76048 86.4023 9.81437V1.61377C86.4023 0.724551 87.1233 0 88.0082 0C88.9259 0 89.6469 0.724551 89.6469 1.61377V16.4012C89.6469 20.9461 85.9435 24.6677 81.4208 24.6677C76.8653 24.6677 73.1947 20.9461 73.1947 16.4012C73.1947 11.8234 76.8653 8.13473 81.4208 8.13473ZM81.4208 21.4072C84.1738 21.4072 86.4023 19.1677 86.4023 16.4012V16.3683C86.4023 13.6347 84.1738 11.3952 81.4208 11.3952C78.6679 11.3952 76.4393 13.6347 76.4393 16.4012C76.4393 19.1347 78.6679 21.4072 81.4208 21.4072ZM99.7738 8.2006C103.739 8.2006 108 11.0988 108 16.4671C108 17.3563 107.279 18.0808 106.361 18.0808H95.0544C95.7427 20.0569 97.578 21.4731 99.7738 21.4731C100.528 21.4731 101.871 21.4072 103.444 20.3862C104.198 19.8922 105.214 20.3533 105.607 21.1437C106.001 21.9671 105.575 22.8234 104.821 23.3174C102.658 24.7665 100.986 24.7336 99.7738 24.7336C95.2183 24.7336 91.5477 21.012 91.5477 16.4671C91.5477 11.8892 95.2183 8.2006 99.7738 8.2006ZM99.7738 11.4611C97.578 11.4611 95.7427 12.8772 95.0544 14.8204H104.526C103.838 12.515 101.74 11.4611 99.7738 11.4611Z" fill="white"/>
</svg>
