<svg width="800" height="244" viewBox="0 0 800 244" fill="none" xmlns="http://www.w3.org/2000/svg">
<path d="M129.218 0.561302C55.9875 -4.06157 -4.36919 56.3624 0.248524 129.675C4.06671 190.132 53.0667 239.186 113.456 243.009C186.687 247.648 247.043 187.208 242.426 113.895C238.607 53.4384 189.607 4.38374 129.218 0.561302ZM129.757 225.285C65.8429 230.333 12.9105 177.325 17.9525 113.34C21.9175 63.0109 62.6611 22.2218 112.934 18.2524C176.848 13.2048 229.78 66.1962 224.738 130.181C220.773 180.51 180.046 221.299 129.757 225.269V225.285Z" fill="#004AF5"/>
<path d="M201.143 88.7546H184.679C183.684 88.7546 182.721 89.1467 182.019 89.8491L118.285 153.654C116.817 155.125 114.434 155.125 112.982 153.654L108.152 148.819C106.684 147.349 104.302 147.349 102.849 148.819L94.6256 157.052C93.157 158.522 93.157 160.907 94.6256 162.361L112.982 180.738C114.451 182.208 116.833 182.208 118.285 180.738L129.169 169.843H129.185L203.803 95.158C206.169 92.7894 204.488 88.7383 201.143 88.7383V88.7546Z" fill="#004AF5"/>
<path d="M146.905 88.7546H130.442C129.446 88.7546 128.484 89.1467 127.782 89.8491L91.1502 126.522C89.6817 127.992 87.2994 127.992 85.8472 126.522L81.0174 121.686C79.5488 120.216 77.1665 120.216 75.7143 121.686L67.4906 129.919C66.022 131.39 66.022 133.774 67.4906 135.228L85.8472 153.605C87.3157 155.076 89.698 155.076 91.1502 153.605L102.017 142.726H102.034L149.581 95.158C151.947 92.7894 150.267 88.7383 146.922 88.7383L146.905 88.7546Z" fill="#004AF5"/>
<path d="M92.8316 88.7546H76.3678C75.3724 88.7546 74.4097 89.1467 73.7081 89.8491L64.0974 99.4705C62.6288 100.941 60.2466 100.941 58.7943 99.4705L54.0135 94.6843C52.5449 93.2141 50.1626 93.2141 48.7104 94.6843L40.4867 102.917C39.0181 104.387 39.0181 106.772 40.4867 108.226L58.827 126.587C60.2955 128.057 62.6778 128.057 64.13 126.587L75.0135 115.691L95.5076 95.158C97.8736 92.7894 96.1929 88.7383 92.848 88.7383L92.8316 88.7546Z" fill="#004AF5"/>
<path d="M672.157 112.591V59.8418H688.497V184.167H672.157V128.221H611.771V184.167H595.253V59.8418H611.771V112.591H672.157Z" fill="#004AF5"/>
<path d="M800 184.167H781.707L753.822 136.568H724.517V184.167H707.999V59.8418H757.73C768.386 59.8418 777.503 63.6308 785.081 71.2087C792.659 78.6682 796.448 87.7262 796.448 98.3827C796.448 106.434 794.021 113.775 789.166 120.406C784.193 127.155 778.036 131.832 770.695 134.437L800 184.167ZM757.73 75.2937H724.517V121.649H757.73C763.887 121.649 769.097 119.4 773.359 114.9C777.74 110.401 779.931 104.895 779.931 98.3827C779.931 91.8704 777.74 86.4238 773.359 82.0428C769.097 77.5434 763.887 75.2937 757.73 75.2937Z" fill="#004AF5"/>
<path d="M268.333 59.0641H313.528C324.916 59.0641 334.465 62.9194 342.176 70.6299C349.886 78.3405 353.742 87.8304 353.742 99.0996C353.742 110.369 349.886 119.859 342.176 127.569C334.465 135.28 324.916 139.135 313.528 139.135H284.881V183.619H268.333V59.0641ZM284.881 123.655H313.528C320.527 123.655 326.221 121.342 330.61 116.715C335.118 111.852 337.372 105.98 337.372 99.0996C337.372 91.9822 335.118 86.1103 330.61 81.484C326.102 76.8577 320.408 74.5445 313.528 74.5445H284.881V123.655Z" fill="#004AF5"/>
<path d="M431.456 109.954V94.6513H446.937V183.619H431.456V168.317C423.865 180.06 412.655 185.932 397.827 185.932C385.253 185.932 374.636 181.425 365.976 172.409C357.198 163.275 352.809 152.184 352.809 139.135C352.809 126.205 357.198 115.173 365.976 106.039C374.754 96.9051 385.371 92.3381 397.827 92.3381C412.655 92.3381 423.865 98.21 431.456 109.954ZM399.784 170.986C408.799 170.986 416.332 167.961 422.382 161.911C428.432 155.624 431.456 148.032 431.456 139.135C431.456 130.12 428.432 122.587 422.382 116.537C416.332 110.369 408.799 107.285 399.784 107.285C390.887 107.285 383.414 110.369 377.364 116.537C371.314 122.587 368.289 130.12 368.289 139.135C368.289 148.032 371.314 155.624 377.364 161.911C383.414 167.961 390.887 170.986 399.784 170.986Z" fill="#004AF5"/>
<path d="M471.103 78.4591C468.137 78.4591 465.646 77.4508 463.629 75.4342C461.613 73.4176 460.605 70.9858 460.605 68.1388C460.605 65.2919 461.613 62.8601 463.629 60.8435C465.646 58.7082 468.137 57.6406 471.103 57.6406C473.95 57.6406 476.382 58.7082 478.398 60.8435C480.415 62.8601 481.423 65.2919 481.423 68.1388C481.423 70.9858 480.415 73.4176 478.398 75.4342C476.382 77.4508 473.95 78.4591 471.103 78.4591ZM478.754 183.619H463.274V94.6513H478.754V183.619Z" fill="#004AF5"/>
<path d="M568.919 109.954V59.0641H584.399V183.619H568.919V168.317C561.327 180.06 550.117 185.932 535.289 185.932C522.715 185.932 512.098 181.425 503.438 172.409C494.66 163.275 490.271 152.184 490.271 139.135C490.271 126.205 494.66 115.173 503.438 106.039C512.217 96.9051 522.833 92.3381 535.289 92.3381C550.117 92.3381 561.327 98.21 568.919 109.954ZM537.246 170.986C546.262 170.986 553.794 167.961 559.844 161.911C565.894 155.624 568.919 148.032 568.919 139.135C568.919 130.12 565.894 122.587 559.844 116.537C553.794 110.369 546.262 107.285 537.246 107.285C528.349 107.285 520.876 110.369 514.826 116.537C508.777 122.587 505.752 130.12 505.752 139.135C505.752 148.032 508.777 155.624 514.826 161.911C520.876 167.961 528.349 170.986 537.246 170.986Z" fill="#004AF5"/>
</svg>
