<svg width="26" height="25" viewBox="0 0 26 25" fill="none" xmlns="http://www.w3.org/2000/svg">
<path d="M13.8119 0.0247167C6.26776 -0.434533 0.0498919 5.56817 0.525603 12.8513C0.918947 18.8572 5.96686 23.7304 12.1881 24.1102C19.7322 24.571 25.95 18.5668 25.4744 11.2836C25.081 5.27769 20.0331 0.404449 13.8119 0.0247167ZM13.8674 22.3494C7.28305 22.8509 1.83002 17.585 2.34944 11.2285C2.75791 6.22865 6.95526 2.17654 12.1343 1.7822C18.7186 1.28076 24.1716 6.54508 23.6522 12.9015C23.2437 17.9014 19.0481 21.9535 13.8674 22.3479V22.3494Z" fill="#F5F5F5"/>
<path d="M21.2196 8.79068H19.5235C19.421 8.79068 19.3218 8.82963 19.2494 8.89941L12.6836 15.238C12.5324 15.3841 12.2869 15.3841 12.1373 15.238L11.6398 14.7577C11.4885 14.6116 11.2431 14.6116 11.0934 14.7577L10.2463 15.5755C10.095 15.7216 10.095 15.9585 10.2463 16.103L12.1373 17.9286C12.2887 18.0746 12.5341 18.0746 12.6836 17.9286L13.8049 16.8462H13.8065L21.4936 9.42681C21.7373 9.19151 21.5642 8.78906 21.2196 8.78906V8.79068Z" fill="#F5F5F5"/>
<path d="M15.6345 8.79068H13.9385C13.8359 8.79068 13.7368 8.82963 13.6645 8.89941L9.89069 12.5426C9.73941 12.6886 9.49399 12.6886 9.34439 12.5426L8.84683 12.0622C8.69553 11.9162 8.45011 11.9162 8.30051 12.0622L7.45331 12.8801C7.30202 13.0262 7.30202 13.263 7.45331 13.4075L9.34439 15.2331C9.49567 15.3792 9.74109 15.3792 9.89069 15.2331L11.0102 14.1524H11.0119L15.9102 9.42681C16.1539 9.19151 15.9808 8.78906 15.6362 8.78906L15.6345 8.79068Z" fill="#F5F5F5"/>
<path d="M10.0646 8.79068H8.36849C8.26594 8.79068 8.16677 8.82963 8.09449 8.89941L7.10441 9.85523C6.95311 10.0013 6.7077 10.0013 6.55809 9.85523L6.06558 9.37976C5.91428 9.2337 5.66886 9.2337 5.51926 9.37976L4.67206 10.1976C4.52077 10.3437 4.52077 10.5806 4.67206 10.725L6.56146 12.5491C6.71274 12.6951 6.95816 12.6951 7.10777 12.5491L8.22897 11.4666L10.3402 9.42681C10.584 9.19151 10.4108 8.78906 10.0663 8.78906L10.0646 8.79068Z" fill="#F5F5F5"/>
</svg>
